G04 start of page 10 for group -4078 idx -4078 *
G04 Title: (unknown), bottomsilk *
G04 Creator: pcb 20091103 *
G04 CreationDate: Mon 12 Dec 2011 01:01:08 AM GMT UTC *
G04 For: haunma *
G04 Format: Gerber/RS-274X *
G04 PCB-Dimensions: 360000 400000 *
G04 PCB-Coordinate-Origin: lower left *
%MOIN*%
%FSLAX25Y25*%
%LNBACKSILK*%
%ADD12C,0.0080*%
%ADD13C,0.0100*%
G54D13*X313101Y162452D02*Y153548D01*
X328699D01*
Y162452D02*Y153548D01*
X313101Y162452D02*X328699D01*
X313489Y152568D02*Y145632D01*
X327511D01*
Y152568D02*Y145632D01*
X313489Y152568D02*X327511D01*
X283032Y218011D02*X289968D01*
X283032D02*Y203989D01*
X289968D01*
Y218011D02*Y203989D01*
X169048Y161999D02*X177952D01*
X169048D02*Y146401D01*
X177952D01*
Y161999D02*Y146401D01*
X169048Y148399D02*X177952D01*
X169048D02*Y132801D01*
X177952D01*
Y148399D02*Y132801D01*
X167641Y292059D02*Y283155D01*
X183239D01*
Y292059D01*
X167641D01*
X164523Y280630D02*X170277D01*
X164523D02*Y268970D01*
X170277D01*
Y280630D02*Y268970D01*
X237532Y353511D02*X244468D01*
X237532D02*Y339489D01*
X244468D01*
Y353511D02*Y339489D01*
X283132Y318589D02*X290068D01*
Y332611D02*Y318589D01*
X283132Y332611D02*X290068D01*
X283132D02*Y318589D01*
X264932Y338011D02*X271868D01*
X264932D02*Y323989D01*
X271868D01*
Y338011D02*Y323989D01*
X161423Y316170D02*X167177D01*
Y327830D02*Y316170D01*
X161423Y327830D02*X167177D01*
X161423D02*Y316170D01*
X132830Y329577D02*Y323823D01*
X121170Y329577D02*X132830D01*
X121170D02*Y323823D01*
X132830D01*
X133848Y324801D02*X142752D01*
Y340399D02*Y324801D01*
X133848Y340399D02*X142752D01*
X133848D02*Y324801D01*
X101248Y307201D02*X110152D01*
Y322799D02*Y307201D01*
X101248Y322799D02*X110152D01*
X101248D02*Y307201D01*
X92923Y290530D02*X98677D01*
X92923D02*Y278870D01*
X98677D01*
Y290530D02*Y278870D01*
X92923Y292570D02*X98677D01*
Y304230D02*Y292570D01*
X92923Y304230D02*X98677D01*
X92923D02*Y292570D01*
X115299Y288852D02*Y279948D01*
X99701Y288852D02*X115299D01*
X99701D02*Y279948D01*
X115299D01*
X145770Y261177D02*Y255423D01*
X157430D01*
Y261177D01*
X145770D01*
X118130Y323423D02*Y329177D01*
X106470D02*X118130D01*
X106470Y323423D02*Y329177D01*
Y323423D02*X118130D01*
X92230Y320040D02*Y314286D01*
X80570Y320040D02*X92230D01*
X80570D02*Y314286D01*
X92230D01*
X94299Y313952D02*Y305048D01*
X78701Y313952D02*X94299D01*
X78701D02*Y305048D01*
X94299D01*
Y262452D02*Y253548D01*
X78701Y262452D02*X94299D01*
X78701D02*Y253548D01*
X94299D01*
X264032Y209089D02*X270968D01*
Y223111D02*Y209089D01*
X264032Y223111D02*X270968D01*
X264032D02*Y209089D01*
X173701Y264952D02*Y256048D01*
X189299D01*
Y264952D01*
X173701D01*
X129730Y261077D02*Y255323D01*
X118070Y261077D02*X129730D01*
X118070D02*Y255323D01*
X129730D01*
X106470Y259877D02*Y254123D01*
X118130D01*
Y259877D01*
X106470D01*
X165366Y263163D02*X171662Y256867D01*
X154337Y252134D02*X165366Y263163D01*
X154337Y252134D02*X160633Y245838D01*
X171662Y256867D01*
X163032Y232511D02*X169968D01*
X163032Y218489D02*Y232511D01*
Y218489D02*X169968D01*
Y232511D01*
X249532Y238711D02*X256468D01*
X249532D02*Y224689D01*
X256468D01*
Y238711D02*Y224689D01*
X163032Y233489D02*X169968D01*
Y247511D02*Y233489D01*
X163032Y247511D02*X169968D01*
X163032D02*Y233489D01*
X242299Y93952D02*Y85048D01*
X226701Y93952D02*X242299D01*
X226701D02*Y85048D01*
X242299D01*
X225299Y93952D02*Y85048D01*
X209701Y93952D02*X225299D01*
X209701D02*Y85048D01*
X225299D01*
G54D12*X265600Y225400D02*Y226900D01*
X266100Y224900D02*X265600Y225400D01*
X266100Y224900D02*X269100D01*
X269600Y225400D01*
Y226900D01*
X267600Y228101D02*X269600Y230101D01*
X267600Y228101D02*Y230601D01*
X265600Y230101D02*X269600D01*
X265600Y232302D02*Y233302D01*
Y232802D02*X269600D01*
X268600Y231802D02*X269600Y232802D01*
X265600Y235003D02*Y236003D01*
Y235503D02*X269600D01*
X268600Y234503D02*X269600Y235503D01*
X251200Y240751D02*Y242251D01*
X251700Y240251D02*X251200Y240751D01*
X251700Y240251D02*X254700D01*
X255200Y240751D01*
Y242251D01*
X253200Y243452D02*X255200Y245452D01*
X253200Y243452D02*Y245952D01*
X251200Y245452D02*X255200D01*
X251700Y247153D02*X251200Y247653D01*
X251700Y247153D02*X254700D01*
X255200Y247653D01*
Y248653D01*
X254700Y249153D01*
X251700D02*X254700D01*
X251200Y248653D02*X251700Y249153D01*
X251200Y247653D02*Y248653D01*
X252200Y247153D02*X254200Y249153D01*
X255200Y250354D02*Y252354D01*
X253200Y250354D02*X255200D01*
X253200D02*X253700Y250854D01*
Y251854D01*
X253200Y252354D01*
X251700D02*X253200D01*
X251200Y251854D02*X251700Y252354D01*
X251200Y250854D02*Y251854D01*
X251700Y250354D02*X251200Y250854D01*
X283600Y220651D02*Y222151D01*
X284100Y220151D02*X283600Y220651D01*
X284100Y220151D02*X287100D01*
X287600Y220651D01*
Y222151D01*
X285600Y223352D02*X287600Y225352D01*
X285600Y223352D02*Y225852D01*
X283600Y225352D02*X287600D01*
X283600Y227553D02*Y228553D01*
Y228053D02*X287600D01*
X286600Y227053D02*X287600Y228053D01*
X287100Y229754D02*X287600Y230254D01*
Y231754D01*
X287100Y232254D01*
X286100D02*X287100D01*
X283600Y229754D02*X286100Y232254D01*
X283600Y229754D02*Y232254D01*
X309700Y146900D02*X311200D01*
X311700Y147400D02*X311200Y146900D01*
X311700Y147400D02*Y150400D01*
X311200Y150900D01*
X309700D02*X311200D01*
X308499Y148900D02*X306499Y150900D01*
X305999Y148900D02*X308499D01*
X306499Y146900D02*Y150900D01*
X304798Y147400D02*X304298Y146900D01*
X304798Y147400D02*Y150400D01*
X304298Y150900D01*
X303298D02*X304298D01*
X303298D02*X302798Y150400D01*
Y147400D02*Y150400D01*
X303298Y146900D02*X302798Y147400D01*
X303298Y146900D02*X304298D01*
X304798Y147900D02*X302798Y149900D01*
X300097Y146900D02*X301097D01*
X300597D02*Y150900D01*
X301597Y149900D02*X300597Y150900D01*
X183500Y149000D02*Y151000D01*
X183000Y151500D01*
X182000D02*X183000D01*
X181500Y151000D02*X182000Y151500D01*
X181500Y149500D02*Y151000D01*
X179500Y149500D02*X183500D01*
X181500D02*X179500Y151500D01*
Y153201D02*Y154201D01*
Y153701D02*X183500D01*
X182500Y152701D02*X183500Y153701D01*
X180000Y155402D02*X179500Y155902D01*
X180000Y155402D02*X183000D01*
X183500Y155902D01*
Y156902D01*
X183000Y157402D01*
X180000D02*X183000D01*
X179500Y156902D02*X180000Y157402D01*
X179500Y155902D02*Y156902D01*
X180500Y155402D02*X182500Y157402D01*
X181500Y158603D02*X183500Y160603D01*
X181500Y158603D02*Y161103D01*
X179500Y160603D02*X183500D01*
Y134000D02*Y136000D01*
X183000Y136500D01*
X182000D02*X183000D01*
X181500Y136000D02*X182000Y136500D01*
X181500Y134500D02*Y136000D01*
X179500Y134500D02*X183500D01*
X181500D02*X179500Y136500D01*
Y138201D02*Y139201D01*
Y138701D02*X183500D01*
X182500Y137701D02*X183500Y138701D01*
X180000Y140402D02*X179500Y140902D01*
X180000Y140402D02*X183000D01*
X183500Y140902D01*
Y141902D01*
X183000Y142402D01*
X180000D02*X183000D01*
X179500Y141902D02*X180000Y142402D01*
X179500Y140902D02*Y141902D01*
X180500Y140402D02*X182500Y142402D01*
X183000Y143603D02*X183500Y144103D01*
Y145103D01*
X183000Y145603D01*
X180000D02*X183000D01*
X179500Y145103D02*X180000Y145603D01*
X179500Y144103D02*Y145103D01*
X180000Y143603D02*X179500Y144103D01*
X181500D02*Y145603D01*
X308900Y155900D02*X310400D01*
X310900Y156400D02*X310400Y155900D01*
X310900Y156400D02*Y159400D01*
X310400Y159900D01*
X308900D02*X310400D01*
X307699Y157900D02*X305699Y159900D01*
X305199Y157900D02*X307699D01*
X305699Y155900D02*Y159900D01*
X303998Y156400D02*X303498Y155900D01*
X303998Y156400D02*Y159400D01*
X303498Y159900D01*
X302498D02*X303498D01*
X302498D02*X301998Y159400D01*
Y156400D02*Y159400D01*
X302498Y155900D02*X301998Y156400D01*
X302498Y155900D02*X303498D01*
X303998Y156900D02*X301998Y158900D01*
X300797Y159400D02*X300297Y159900D01*
X298797D02*X300297D01*
X298797D02*X298297Y159400D01*
Y158400D02*Y159400D01*
X300797Y155900D02*X298297Y158400D01*
Y155900D02*X300797D01*
X186799Y270921D02*X188799D01*
X186799D02*X186299Y270421D01*
Y269421D02*Y270421D01*
X186799Y268921D02*X186299Y269421D01*
X186799Y268921D02*X188299D01*
Y266921D02*Y270921D01*
Y268921D02*X186299Y266921D01*
X185098Y270421D02*X184598Y270921D01*
X183598D02*X184598D01*
X183598D02*X183098Y270421D01*
Y267421D02*Y270421D01*
X183598Y266921D02*X183098Y267421D01*
X183598Y266921D02*X184598D01*
X185098Y267421D02*X184598Y266921D01*
X183098Y268921D02*X184598D01*
X181897Y267421D02*X181397Y266921D01*
X181897Y267421D02*Y270421D01*
X181397Y270921D01*
X180397D02*X181397D01*
X180397D02*X179897Y270421D01*
Y267421D02*Y270421D01*
X180397Y266921D02*X179897Y267421D01*
X180397Y266921D02*X181397D01*
X181897Y267921D02*X179897Y269921D01*
X176696Y270921D02*X178696D01*
Y268921D02*Y270921D01*
Y268921D02*X178196Y269421D01*
X177196D02*X178196D01*
X177196D02*X176696Y268921D01*
Y267421D02*Y268921D01*
X177196Y266921D02*X176696Y267421D01*
X177196Y266921D02*X178196D01*
X178696Y267421D02*X178196Y266921D01*
X179359Y277114D02*X180859D01*
X181359Y277614D02*X180859Y277114D01*
X181359Y277614D02*Y280614D01*
X180859Y281114D01*
X179359D02*X180859D01*
X178158Y280614D02*X177658Y281114D01*
X176158D02*X177658D01*
X176158D02*X175658Y280614D01*
Y279614D02*Y280614D01*
X178158Y277114D02*X175658Y279614D01*
Y277114D02*X178158D01*
X174457Y280614D02*X173957Y281114D01*
X172457D02*X173957D01*
X172457D02*X171957Y280614D01*
Y279614D02*Y280614D01*
X174457Y277114D02*X171957Y279614D01*
Y277114D02*X174457D01*
X168756Y281114D02*X170756D01*
Y279114D02*Y281114D01*
Y279114D02*X170256Y279614D01*
X169256D02*X170256D01*
X169256D02*X168756Y279114D01*
Y277614D02*Y279114D01*
X169256Y277114D02*X168756Y277614D01*
X169256Y277114D02*X170256D01*
X170756Y277614D02*X170256Y277114D01*
X238900Y355600D02*Y357100D01*
X239400Y355100D02*X238900Y355600D01*
X239400Y355100D02*X242400D01*
X242900Y355600D01*
Y357100D01*
X240900Y358301D02*X242900Y360301D01*
X240900Y358301D02*Y360801D01*
X238900Y360301D02*X242900D01*
X239400Y362002D02*X238900Y362502D01*
X239400Y362002D02*X242400D01*
X242900Y362502D01*
Y363502D01*
X242400Y364002D01*
X239400D02*X242400D01*
X238900Y363502D02*X239400Y364002D01*
X238900Y362502D02*Y363502D01*
X239900Y362002D02*X241900Y364002D01*
X242900Y366703D02*X242400Y367203D01*
X242900Y365703D02*Y366703D01*
X242400Y365203D02*X242900Y365703D01*
X239400Y365203D02*X242400D01*
X239400D02*X238900Y365703D01*
X240900Y366703D02*X240400Y367203D01*
X240900Y365203D02*Y366703D01*
X238900Y365703D02*Y366703D01*
X239400Y367203D01*
X240400D01*
X266137Y339991D02*Y341491D01*
X266637Y339491D02*X266137Y339991D01*
X266637Y339491D02*X269637D01*
X270137Y339991D01*
Y341491D01*
X268137Y342692D02*X270137Y344692D01*
X268137Y342692D02*Y345192D01*
X266137Y344692D02*X270137D01*
X266137Y346893D02*Y347893D01*
Y347393D02*X270137D01*
X269137Y346393D02*X270137Y347393D01*
X266137Y349094D02*X268137Y351094D01*
X269637D01*
X270137Y350594D02*X269637Y351094D01*
X270137Y349594D02*Y350594D01*
X269637Y349094D02*X270137Y349594D01*
X268637Y349094D02*X269637D01*
X268637D02*X268137Y349594D01*
Y351094D01*
X284737Y334789D02*Y336289D01*
X285237Y334289D02*X284737Y334789D01*
X285237Y334289D02*X288237D01*
X288737Y334789D01*
Y336289D01*
X286737Y337490D02*X288737Y339490D01*
X286737Y337490D02*Y339990D01*
X284737Y339490D02*X288737D01*
X284737Y341691D02*Y342691D01*
Y342191D02*X288737D01*
X287737Y341191D02*X288737Y342191D01*
X285237Y343892D02*X284737Y344392D01*
X285237Y343892D02*X286237D01*
X286737Y344392D01*
Y345392D01*
X286237Y345892D01*
X285237D02*X286237D01*
X284737Y345392D02*X285237Y345892D01*
X284737Y344392D02*Y345392D01*
X287237Y343892D02*X286737Y344392D01*
X287237Y343892D02*X288237D01*
X288737Y344392D01*
Y345392D01*
X288237Y345892D01*
X287237D02*X288237D01*
X286737Y345392D02*X287237Y345892D01*
X223299Y95921D02*X224799D01*
X225299Y96421D02*X224799Y95921D01*
X225299Y96421D02*Y99421D01*
X224799Y99921D01*
X223299D02*X224799D01*
X222098Y99421D02*X221598Y99921D01*
X220098D02*X221598D01*
X220098D02*X219598Y99421D01*
Y98421D02*Y99421D01*
X222098Y95921D02*X219598Y98421D01*
Y95921D02*X222098D01*
X218397Y96421D02*X217897Y95921D01*
X218397Y96421D02*Y99421D01*
X217897Y99921D01*
X216897D02*X217897D01*
X216897D02*X216397Y99421D01*
Y96421D02*Y99421D01*
X216897Y95921D02*X216397Y96421D01*
X216897Y95921D02*X217897D01*
X218397Y96921D02*X216397Y98921D01*
X215196Y97921D02*X213196Y99921D01*
X212696Y97921D02*X215196D01*
X213196Y95921D02*Y99921D01*
X238500Y83532D02*X240500D01*
X238500D02*X238000Y83032D01*
Y82032D02*Y83032D01*
X238500Y81532D02*X238000Y82032D01*
X238500Y81532D02*X240000D01*
Y79532D02*Y83532D01*
Y81532D02*X238000Y79532D01*
X236799Y83032D02*X236299Y83532D01*
X234799D02*X236299D01*
X234799D02*X234299Y83032D01*
Y82032D02*Y83032D01*
X236799Y79532D02*X234299Y82032D01*
Y79532D02*X236799D01*
X233098Y80032D02*X232598Y79532D01*
X233098Y80032D02*Y83032D01*
X232598Y83532D01*
X231598D02*X232598D01*
X231598D02*X231098Y83032D01*
Y80032D02*Y83032D01*
X231598Y79532D02*X231098Y80032D01*
X231598Y79532D02*X232598D01*
X233098Y80532D02*X231098Y82532D01*
X227897Y83532D02*X229897D01*
Y81532D02*Y83532D01*
Y81532D02*X229397Y82032D01*
X228397D02*X229397D01*
X228397D02*X227897Y81532D01*
Y80032D02*Y81532D01*
X228397Y79532D02*X227897Y80032D01*
X228397Y79532D02*X229397D01*
X229897Y80032D02*X229397Y79532D01*
X155500Y316000D02*Y317500D01*
X156000Y315500D02*X155500Y316000D01*
X156000Y315500D02*X159000D01*
X159500Y316000D01*
Y317500D01*
X159000Y318701D02*X159500Y319201D01*
Y320701D01*
X159000Y321201D01*
X158000D02*X159000D01*
X155500Y318701D02*X158000Y321201D01*
X155500Y318701D02*Y321201D01*
X159000Y322402D02*X159500Y322902D01*
Y324402D01*
X159000Y324902D01*
X158000D02*X159000D01*
X155500Y322402D02*X158000Y324902D01*
X155500Y322402D02*Y324902D01*
X159000Y326103D02*X159500Y326603D01*
Y327603D01*
X159000Y328103D01*
X156000D02*X159000D01*
X155500Y327603D02*X156000Y328103D01*
X155500Y326603D02*Y327603D01*
X156000Y326103D02*X155500Y326603D01*
X157500D02*Y328103D01*
X144700Y326500D02*Y328000D01*
X145200Y326000D02*X144700Y326500D01*
X145200Y326000D02*X148200D01*
X148700Y326500D01*
Y328000D01*
X148200Y329201D02*X148700Y329701D01*
Y331201D01*
X148200Y331701D01*
X147200D02*X148200D01*
X144700Y329201D02*X147200Y331701D01*
X144700Y329201D02*Y331701D01*
X148200Y332902D02*X148700Y333402D01*
Y334902D01*
X148200Y335402D01*
X147200D02*X148200D01*
X144700Y332902D02*X147200Y335402D01*
X144700Y332902D02*Y335402D01*
X145200Y336603D02*X144700Y337103D01*
X145200Y336603D02*X148200D01*
X148700Y337103D01*
Y338103D01*
X148200Y338603D01*
X145200D02*X148200D01*
X144700Y338103D02*X145200Y338603D01*
X144700Y337103D02*Y338103D01*
X145700Y336603D02*X147700Y338603D01*
X90000Y322000D02*X91500D01*
X92000Y322500D02*X91500Y322000D01*
X92000Y322500D02*Y325500D01*
X91500Y326000D01*
X90000D02*X91500D01*
X88799Y325500D02*X88299Y326000D01*
X86799D02*X88299D01*
X86799D02*X86299Y325500D01*
Y324500D02*Y325500D01*
X88799Y322000D02*X86299Y324500D01*
Y322000D02*X88799D01*
X83598D02*X84598D01*
X84098D02*Y326000D01*
X85098Y325000D02*X84098Y326000D01*
X82397Y322000D02*X79897Y324500D01*
Y326000D01*
X82397D01*
X129000Y262500D02*X130500D01*
X131000Y263000D02*X130500Y262500D01*
X131000Y263000D02*Y266000D01*
X130500Y266500D01*
X129000D02*X130500D01*
X127799Y266000D02*X127299Y266500D01*
X125799D02*X127299D01*
X125799D02*X125299Y266000D01*
Y265000D02*Y266000D01*
X127799Y262500D02*X125299Y265000D01*
Y262500D02*X127799D01*
X124098Y263000D02*X123598Y262500D01*
X124098Y263000D02*Y266000D01*
X123598Y266500D01*
X122598D02*X123598D01*
X122598D02*X122098Y266000D01*
Y263000D02*Y266000D01*
X122598Y262500D02*X122098Y263000D01*
X122598Y262500D02*X123598D01*
X124098Y263500D02*X122098Y265500D01*
X120897Y262500D02*X118897Y264500D01*
Y266000D01*
X119397Y266500D02*X118897Y266000D01*
X119397Y266500D02*X120397D01*
X120897Y266000D02*X120397Y266500D01*
X120897Y265000D02*Y266000D01*
Y265000D02*X120397Y264500D01*
X118897D02*X120397D01*
X155500Y263000D02*X157000D01*
X157500Y263500D02*X157000Y263000D01*
X157500Y263500D02*Y266500D01*
X157000Y267000D01*
X155500D02*X157000D01*
X154299Y266500D02*X153799Y267000D01*
X152299D02*X153799D01*
X152299D02*X151799Y266500D01*
Y265500D02*Y266500D01*
X154299Y263000D02*X151799Y265500D01*
Y263000D02*X154299D01*
X149098D02*X150098D01*
X149598D02*Y267000D01*
X150598Y266000D02*X149598Y267000D01*
X147897Y263000D02*X145897Y265000D01*
Y266500D01*
X146397Y267000D02*X145897Y266500D01*
X146397Y267000D02*X147397D01*
X147897Y266500D02*X147397Y267000D01*
X147897Y265500D02*Y266500D01*
Y265500D02*X147397Y265000D01*
X145897D02*X147397D01*
X153607Y244681D02*X155107D01*
X155607Y245181D02*X155107Y244681D01*
X155607Y245181D02*Y248181D01*
X155107Y248681D01*
X153607D02*X155107D01*
X152406Y248181D02*X151906Y248681D01*
X150406D02*X151906D01*
X150406D02*X149906Y248181D01*
Y247181D02*Y248181D01*
X152406Y244681D02*X149906Y247181D01*
Y244681D02*X152406D01*
X148705Y245181D02*X148205Y244681D01*
X148705Y245181D02*Y248181D01*
X148205Y248681D01*
X147205D02*X148205D01*
X147205D02*X146705Y248181D01*
Y245181D02*Y248181D01*
X147205Y244681D02*X146705Y245181D01*
X147205Y244681D02*X148205D01*
X148705Y245681D02*X146705Y247681D01*
X145504Y245181D02*X145004Y244681D01*
X145504Y245181D02*Y246181D01*
X145004Y246681D01*
X144004D02*X145004D01*
X144004D02*X143504Y246181D01*
Y245181D02*Y246181D01*
X144004Y244681D02*X143504Y245181D01*
X144004Y244681D02*X145004D01*
X145504Y247181D02*X145004Y246681D01*
X145504Y247181D02*Y248181D01*
X145004Y248681D01*
X144004D02*X145004D01*
X144004D02*X143504Y248181D01*
Y247181D02*Y248181D01*
X144004Y246681D02*X143504Y247181D01*
X114500Y261500D02*X116000D01*
X116500Y262000D02*X116000Y261500D01*
X116500Y262000D02*Y265000D01*
X116000Y265500D01*
X114500D02*X116000D01*
X113299Y265000D02*X112799Y265500D01*
X111299D02*X112799D01*
X111299D02*X110799Y265000D01*
Y264000D02*Y265000D01*
X113299Y261500D02*X110799Y264000D01*
Y261500D02*X113299D01*
X108098D02*X109098D01*
X108598D02*Y265500D01*
X109598Y264500D02*X108598Y265500D01*
X106897Y262000D02*X106397Y261500D01*
X106897Y262000D02*Y263000D01*
X106397Y263500D01*
X105397D02*X106397D01*
X105397D02*X104897Y263000D01*
Y262000D02*Y263000D01*
X105397Y261500D02*X104897Y262000D01*
X105397Y261500D02*X106397D01*
X106897Y264000D02*X106397Y263500D01*
X106897Y264000D02*Y265000D01*
X106397Y265500D01*
X105397D02*X106397D01*
X105397D02*X104897Y265000D01*
Y264000D02*Y265000D01*
X105397Y263500D02*X104897Y264000D01*
X172000Y220000D02*Y221500D01*
X172500Y219500D02*X172000Y220000D01*
X172500Y219500D02*X175500D01*
X176000Y220000D01*
Y221500D01*
X175500Y222701D02*X176000Y223201D01*
Y224201D01*
X175500Y224701D01*
X172500D02*X175500D01*
X172000Y224201D02*X172500Y224701D01*
X172000Y223201D02*Y224201D01*
X172500Y222701D02*X172000Y223201D01*
X174000D02*Y224701D01*
X172500Y225902D02*X172000Y226402D01*
X172500Y225902D02*X175500D01*
X176000Y226402D01*
Y227402D01*
X175500Y227902D01*
X172500D02*X175500D01*
X172000Y227402D02*X172500Y227902D01*
X172000Y226402D02*Y227402D01*
X173000Y225902D02*X175000Y227902D01*
X172000Y229603D02*Y230603D01*
Y230103D02*X176000D01*
X175000Y229103D02*X176000Y230103D01*
Y234000D02*Y236000D01*
X175500Y236500D01*
X174500D02*X175500D01*
X174000Y236000D02*X174500Y236500D01*
X174000Y234500D02*Y236000D01*
X172000Y234500D02*X176000D01*
X174000D02*X172000Y236500D01*
X175500Y237701D02*X176000Y238201D01*
Y239201D01*
X175500Y239701D01*
X172500D02*X175500D01*
X172000Y239201D02*X172500Y239701D01*
X172000Y238201D02*Y239201D01*
X172500Y237701D02*X172000Y238201D01*
X174000D02*Y239701D01*
X172500Y240902D02*X172000Y241402D01*
X172500Y240902D02*X175500D01*
X176000Y241402D01*
Y242402D01*
X175500Y242902D01*
X172500D02*X175500D01*
X172000Y242402D02*X172500Y242902D01*
X172000Y241402D02*Y242402D01*
X173000Y240902D02*X175000Y242902D01*
X172000Y244103D02*X174500Y246603D01*
X176000D01*
Y244103D02*Y246603D01*
X158500Y269500D02*Y271000D01*
X159000Y269000D02*X158500Y269500D01*
X159000Y269000D02*X162000D01*
X162500Y269500D01*
Y271000D01*
X162000Y272201D02*X162500Y272701D01*
Y274201D01*
X162000Y274701D01*
X161000D02*X162000D01*
X158500Y272201D02*X161000Y274701D01*
X158500Y272201D02*Y274701D01*
X162000Y275902D02*X162500Y276402D01*
Y277902D01*
X162000Y278402D01*
X161000D02*X162000D01*
X158500Y275902D02*X161000Y278402D01*
X158500Y275902D02*Y278402D01*
X160500Y279603D02*X162500Y281603D01*
X160500Y279603D02*Y282103D01*
X158500Y281603D02*X162500D01*
X121500Y317500D02*X123000D01*
X123500Y318000D02*X123000Y317500D01*
X123500Y318000D02*Y321000D01*
X123000Y321500D01*
X121500D02*X123000D01*
X120299Y321000D02*X119799Y321500D01*
X118299D02*X119799D01*
X118299D02*X117799Y321000D01*
Y320000D02*Y321000D01*
X120299Y317500D02*X117799Y320000D01*
Y317500D02*X120299D01*
X116598Y321000D02*X116098Y321500D01*
X114598D02*X116098D01*
X114598D02*X114098Y321000D01*
Y320000D02*Y321000D01*
X116598Y317500D02*X114098Y320000D01*
Y317500D02*X116598D01*
X111397D02*X112397D01*
X111897D02*Y321500D01*
X112897Y320500D02*X111897Y321500D01*
X112200Y304000D02*Y305500D01*
X112700Y303500D02*X112200Y304000D01*
X112700Y303500D02*X115700D01*
X116200Y304000D01*
Y305500D01*
X115700Y306701D02*X116200Y307201D01*
Y308701D01*
X115700Y309201D01*
X114700D02*X115700D01*
X112200Y306701D02*X114700Y309201D01*
X112200Y306701D02*Y309201D01*
X112700Y310402D02*X112200Y310902D01*
X112700Y310402D02*X115700D01*
X116200Y310902D01*
Y311902D01*
X115700Y312402D01*
X112700D02*X115700D01*
X112200Y311902D02*X112700Y312402D01*
X112200Y310902D02*Y311902D01*
X113200Y310402D02*X115200Y312402D01*
X116200Y315103D02*X115700Y315603D01*
X116200Y314103D02*Y315103D01*
X115700Y313603D02*X116200Y314103D01*
X112700Y313603D02*X115700D01*
X112700D02*X112200Y314103D01*
X114200Y315103D02*X113700Y315603D01*
X114200Y313603D02*Y315103D01*
X112200Y314103D02*Y315103D01*
X112700Y315603D01*
X113700D01*
X138000Y318000D02*X139500D01*
X140000Y318500D02*X139500Y318000D01*
X140000Y318500D02*Y321500D01*
X139500Y322000D01*
X138000D02*X139500D01*
X136799Y321500D02*X136299Y322000D01*
X134799D02*X136299D01*
X134799D02*X134299Y321500D01*
Y320500D02*Y321500D01*
X136799Y318000D02*X134299Y320500D01*
Y318000D02*X136799D01*
X133098Y321500D02*X132598Y322000D01*
X131098D02*X132598D01*
X131098D02*X130598Y321500D01*
Y320500D02*Y321500D01*
X133098Y318000D02*X130598Y320500D01*
Y318000D02*X133098D01*
X129397Y321500D02*X128897Y322000D01*
X127397D02*X128897D01*
X127397D02*X126897Y321500D01*
Y320500D02*Y321500D01*
X129397Y318000D02*X126897Y320500D01*
Y318000D02*X129397D01*
X111600Y274300D02*X113100D01*
X113600Y274800D02*X113100Y274300D01*
X113600Y274800D02*Y277800D01*
X113100Y278300D01*
X111600D02*X113100D01*
X110399Y277800D02*X109899Y278300D01*
X108399D02*X109899D01*
X108399D02*X107899Y277800D01*
Y276800D02*Y277800D01*
X110399Y274300D02*X107899Y276800D01*
Y274300D02*X110399D01*
X106698Y274800D02*X106198Y274300D01*
X106698Y274800D02*Y277800D01*
X106198Y278300D01*
X105198D02*X106198D01*
X105198D02*X104698Y277800D01*
Y274800D02*Y277800D01*
X105198Y274300D02*X104698Y274800D01*
X105198Y274300D02*X106198D01*
X106698Y275300D02*X104698Y277300D01*
X103497Y274300D02*X100997Y276800D01*
Y278300D01*
X103497D01*
X87200Y279300D02*Y280800D01*
X87700Y278800D02*X87200Y279300D01*
X87700Y278800D02*X90700D01*
X91200Y279300D01*
Y280800D01*
X90700Y282001D02*X91200Y282501D01*
Y284001D01*
X90700Y284501D01*
X89700D02*X90700D01*
X87200Y282001D02*X89700Y284501D01*
X87200Y282001D02*Y284501D01*
Y286202D02*Y287202D01*
Y286702D02*X91200D01*
X90200Y285702D02*X91200Y286702D01*
X90700Y288403D02*X91200Y288903D01*
Y289903D01*
X90700Y290403D01*
X87700D02*X90700D01*
X87200Y289903D02*X87700Y290403D01*
X87200Y288903D02*Y289903D01*
X87700Y288403D02*X87200Y288903D01*
X89200D02*Y290403D01*
X100500Y294700D02*Y296200D01*
X101000Y294200D02*X100500Y294700D01*
X101000Y294200D02*X104000D01*
X104500Y294700D01*
Y296200D01*
X104000Y297401D02*X104500Y297901D01*
Y299401D01*
X104000Y299901D01*
X103000D02*X104000D01*
X100500Y297401D02*X103000Y299901D01*
X100500Y297401D02*Y299901D01*
Y301602D02*Y302602D01*
Y302102D02*X104500D01*
X103500Y301102D02*X104500Y302102D01*
Y305303D02*X104000Y305803D01*
X104500Y304303D02*Y305303D01*
X104000Y303803D02*X104500Y304303D01*
X101000Y303803D02*X104000D01*
X101000D02*X100500Y304303D01*
X102500Y305303D02*X102000Y305803D01*
X102500Y303803D02*Y305303D01*
X100500Y304303D02*Y305303D01*
X101000Y305803D01*
X102000D01*
X89500Y264000D02*X91000D01*
X91500Y264500D02*X91000Y264000D01*
X91500Y264500D02*Y267500D01*
X91000Y268000D01*
X89500D02*X91000D01*
X88299Y267500D02*X87799Y268000D01*
X86299D02*X87799D01*
X86299D02*X85799Y267500D01*
Y266500D02*Y267500D01*
X88299Y264000D02*X85799Y266500D01*
Y264000D02*X88299D01*
X83098D02*X84098D01*
X83598D02*Y268000D01*
X84598Y267000D02*X83598Y268000D01*
X79897D02*X81897D01*
Y266000D02*Y268000D01*
Y266000D02*X81397Y266500D01*
X80397D02*X81397D01*
X80397D02*X79897Y266000D01*
Y264500D02*Y266000D01*
X80397Y264000D02*X79897Y264500D01*
X80397Y264000D02*X81397D01*
X81897Y264500D02*X81397Y264000D01*
X89500Y299500D02*X91000D01*
X91500Y300000D02*X91000Y299500D01*
X91500Y300000D02*Y303000D01*
X91000Y303500D01*
X89500D02*X91000D01*
X88299Y303000D02*X87799Y303500D01*
X86299D02*X87799D01*
X86299D02*X85799Y303000D01*
Y302000D02*Y303000D01*
X88299Y299500D02*X85799Y302000D01*
Y299500D02*X88299D01*
X83098D02*X84098D01*
X83598D02*Y303500D01*
X84598Y302500D02*X83598Y303500D01*
X81897Y301500D02*X79897Y303500D01*
X79397Y301500D02*X81897D01*
X79897Y299500D02*Y303500D01*
M02*
